M48
; DRILL file {KiCad 9.0.7} date 2026-06-09T15:48:04+0530
; FORMAT={-:-/ absolute / inch / decimal}
; #@! TF.CreationDate,2026-06-09T15:48:04+05:30
; #@! TF.GenerationSoftware,Kicad,Pcbnew,9.0.7
; #@! TF.FileFunction,MixedPlating,1,2
FMAT,2
INCH
; #@! TA.AperFunction,Plated,PTH,ComponentDrill
T1C0.0315
; #@! TA.AperFunction,Plated,PTH,ComponentDrill
T2C0.0394
%
G90
G05
T1
X5.309Y-4.3307
X5.3299Y-3.4843
X5.4467Y-4.3307
X5.5858Y-3.6614
X5.6179Y-3.8657
X5.6179Y-3.9657
X5.6179Y-4.0657
X5.6179Y-4.1657
X5.9179Y-3.8657
X5.9179Y-3.9657
X5.9179Y-4.0657
X5.9179Y-4.1657
X5.9299Y-3.4843
X6.1858Y-3.6614
T2
X5.3937Y-3.622
X5.3937Y-4.0157
X5.6988Y-4.3701
X5.7988Y-4.3701
X6.0138Y-4.3691
X6.063Y-3.9764
X6.063Y-4.0764
X6.1138Y-4.3691
M30
