%TF.GenerationSoftware,KiCad,Pcbnew,9.0.7*%
%TF.CreationDate,2026-06-09T15:48:00+05:30*%
%TF.ProjectId,touchtoy,746f7563-6874-46f7-992e-6b696361645f,0.1*%
%TF.SameCoordinates,Original*%
%TF.FileFunction,Copper,L1,Top*%
%TF.FilePolarity,Positive*%
%FSLAX46Y46*%
G04 Gerber Fmt 4.6, Leading zero omitted, Abs format (unit mm)*
G04 Created by KiCad (PCBNEW 9.0.7) date 2026-06-09 15:48:00*
%MOMM*%
%LPD*%
G01*
G04 APERTURE LIST*
G04 Aperture macros list*
%AMRoundRect*
0 Rectangle with rounded corners*
0 $1 Rounding radius*
0 $2 $3 $4 $5 $6 $7 $8 $9 X,Y pos of 4 corners*
0 Add a 4 corners polygon primitive as box body*
4,1,4,$2,$3,$4,$5,$6,$7,$8,$9,$2,$3,0*
0 Add four circle primitives for the rounded corners*
1,1,$1+$1,$2,$3*
1,1,$1+$1,$4,$5*
1,1,$1+$1,$6,$7*
1,1,$1+$1,$8,$9*
0 Add four rect primitives between the rounded corners*
20,1,$1+$1,$2,$3,$4,$5,0*
20,1,$1+$1,$4,$5,$6,$7,0*
20,1,$1+$1,$6,$7,$8,$9,0*
20,1,$1+$1,$8,$9,$2,$3,0*%
G04 Aperture macros list end*
%TA.AperFunction,ComponentPad*%
%ADD10R,1.700000X1.700000*%
%TD*%
%TA.AperFunction,ComponentPad*%
%ADD11C,1.700000*%
%TD*%
%TA.AperFunction,ComponentPad*%
%ADD12C,1.600000*%
%TD*%
%TA.AperFunction,ComponentPad*%
%ADD13C,2.000000*%
%TD*%
%TA.AperFunction,ComponentPad*%
%ADD14RoundRect,0.250000X-0.550000X-0.550000X0.550000X-0.550000X0.550000X0.550000X-0.550000X0.550000X0*%
%TD*%
%TA.AperFunction,Conductor*%
%ADD15C,0.500000*%
%TD*%
%TA.AperFunction,Conductor*%
%ADD16C,0.300000*%
%TD*%
%TA.AperFunction,Conductor*%
%ADD17C,0.200000*%
%TD*%
G04 APERTURE END LIST*
D10*
%TO.P,+ BUZ -,1,1*%
%TO.N,Net-(C2-Pad2)*%
X144750000Y-111000000D03*
D11*
%TO.P,+ BUZ -,2,2*%
%TO.N,GND*%
X147290000Y-111000000D03*
%TD*%
D12*
%TO.P,10K,1*%
%TO.N,Net-(R1-Pad1)*%
X157120000Y-93000000D03*
%TO.P,10K,2*%
%TO.N,/DIS*%
X141880000Y-93000000D03*
%TD*%
D10*
%TO.P,+ BAT -,1,1*%
%TO.N,VCC*%
X152750000Y-110975000D03*
D11*
%TO.P,+ BAT -,2,2*%
%TO.N,GND*%
X155290000Y-110975000D03*
%TD*%
D10*
%TO.P,TOUCH INPUT,1,1*%
%TO.N,Net-(R1-Pad1)*%
X154000000Y-101000000D03*
D11*
%TO.P,TOUCH INPUT,2,2*%
%TO.N,/TR*%
X154000000Y-103540000D03*
%TD*%
D13*
%TO.P,1nF,1*%
%TO.N,/TR*%
X137000000Y-102000000D03*
%TO.P,1nF,2*%
%TO.N,GND*%
X137000000Y-92000000D03*
%TD*%
D12*
%TO.P,1K,1*%
%TO.N,/DIS*%
X150620000Y-88500000D03*
%TO.P,1K,2*%
%TO.N,VCC*%
X135380000Y-88500000D03*
%TD*%
D14*
%TO.P,100uF,1*%
%TO.N,/out*%
X134847349Y-110000000D03*
D12*
%TO.P,100uF,2*%
%TO.N,Net-(C2-Pad2)*%
X138347349Y-110000000D03*
%TD*%
D14*
%TO.P,IC 555,1,GND*%
%TO.N,GND*%
X142695000Y-98190000D03*
D12*
%TO.P,IC 555,2,TRIG*%
%TO.N,/TR*%
X142695000Y-100730000D03*
%TO.P,IC 555,3,OUT*%
%TO.N,/out*%
X142695000Y-103270000D03*
%TO.P,IC 555,4,~{RST}*%
%TO.N,VCC*%
X142695000Y-105810000D03*
%TO.P,IC 555,5,CONT*%
%TO.N,unconnected-(U1-CONT-Pad5)*%
X150315000Y-105810000D03*
%TO.P,IC 555,6,THRES*%
%TO.N,/TR*%
X150315000Y-103270000D03*
%TO.P,IC 555,7,DISCH*%
%TO.N,/DIS*%
X150315000Y-100730000D03*
%TO.P,IC 555,8,VCC*%
%TO.N,VCC*%
X150315000Y-98190000D03*
%TD*%
D15*
%TO.N,GND*%
X155290000Y-111907000D02*
X155290000Y-110975000D01*
X147290000Y-111000000D02*
X149515000Y-113225000D01*
X147290000Y-102785000D02*
X147290000Y-111000000D01*
X153972000Y-113225000D02*
X155290000Y-111907000D01*
X137000000Y-92000000D02*
X142695000Y-97695000D01*
X142695000Y-98190000D02*
X147290000Y-102785000D01*
X149515000Y-113225000D02*
X153972000Y-113225000D01*
X142695000Y-97695000D02*
X142695000Y-98190000D01*
D16*
%TO.N,/TR*%
X138270000Y-100730000D02*
X142695000Y-100730000D01*
X137000000Y-102000000D02*
X138270000Y-100730000D01*
%TO.N,Net-(C2-Pad2)*%
X143750000Y-110000000D02*
X144750000Y-111000000D01*
X138347349Y-110000000D02*
X143750000Y-110000000D01*
%TO.N,/out*%
X134847349Y-110000000D02*
X135965000Y-110000000D01*
X135965000Y-110000000D02*
X142695000Y-103270000D01*
D17*
%TO.N,Net-(R1-Pad1)*%
X154000000Y-96120000D02*
X157120000Y-93000000D01*
X154000000Y-101000000D02*
X154000000Y-96120000D01*
D16*
%TO.N,/DIS*%
X142585000Y-93000000D02*
X150315000Y-100730000D01*
X146380000Y-88500000D02*
X141880000Y-93000000D01*
X141880000Y-93000000D02*
X142585000Y-93000000D01*
X150620000Y-88500000D02*
X146380000Y-88500000D01*
%TD*%
%TA.AperFunction,Conductor*%
%TO.N,GND*%
G36*
X135070614Y-87020185D02*
G01*
X135116369Y-87072989D01*
X135126313Y-87142147D01*
X135097288Y-87205703D01*
X135041894Y-87242431D01*
X134880776Y-87294781D01*
X134698386Y-87387715D01*
X134532786Y-87508028D01*
X134388028Y-87652786D01*
X134267715Y-87818386D01*
X134174781Y-88000776D01*
X134111522Y-88195465D01*
X134079500Y-88397648D01*
X134079500Y-88602351D01*
X134111522Y-88804534D01*
X134174781Y-88999223D01*
X134267715Y-89181613D01*
X134388028Y-89347213D01*
X134532786Y-89491971D01*
X134687749Y-89604556D01*
X134698390Y-89612287D01*
X134814607Y-89671503D01*
X134880776Y-89705218D01*
X134880778Y-89705218D01*
X134880781Y-89705220D01*
X134985137Y-89739127D01*
X135075465Y-89768477D01*
X135176557Y-89784488D01*
X135277648Y-89800500D01*
X135277649Y-89800500D01*
X135482351Y-89800500D01*
X135482352Y-89800500D01*
X135684534Y-89768477D01*
X135879219Y-89705220D01*
X136061610Y-89612287D01*
X136154590Y-89544732D01*
X136227213Y-89491971D01*
X136227215Y-89491968D01*
X136227219Y-89491966D01*
X136371966Y-89347219D01*
X136371968Y-89347215D01*
X136371971Y-89347213D01*
X136424732Y-89274590D01*
X136492287Y-89181610D01*
X136585220Y-88999219D01*
X136648477Y-88804534D01*
X136680500Y-88602352D01*
X136680500Y-88397648D01*
X136648477Y-88195466D01*
X136585220Y-88000781D01*
X136585218Y-88000778D01*
X136585218Y-88000776D01*
X136520876Y-87874499D01*
X136492287Y-87818390D01*
X136477753Y-87798385D01*
X136371971Y-87652786D01*
X136227213Y-87508028D01*
X136061613Y-87387715D01*
X136061612Y-87387714D01*
X136061610Y-87387713D01*
X136004653Y-87358691D01*
X135879223Y-87294781D01*
X135718106Y-87242431D01*
X135660431Y-87202993D01*
X135633233Y-87138634D01*
X135645148Y-87069788D01*
X135692392Y-87018312D01*
X135756425Y-87000500D01*
X150243575Y-87000500D01*
X150310614Y-87020185D01*
X150356369Y-87072989D01*
X150366313Y-87142147D01*
X150337288Y-87205703D01*
X150281894Y-87242431D01*
X150120776Y-87294781D01*
X149938386Y-87387715D01*
X149772786Y-87508028D01*
X149628034Y-87652780D01*
X149628030Y-87652786D01*
X149522246Y-87798386D01*
X149466918Y-87841051D01*
X149421929Y-87849500D01*
X146315929Y-87849500D01*
X146190261Y-87874497D01*
X146190255Y-87874499D01*
X146071874Y-87923534D01*
X145965326Y-87994726D01*
X142267190Y-91692862D01*
X142205867Y-91726347D01*
X142160111Y-91727654D01*
X142014611Y-91704609D01*
X141982352Y-91699500D01*
X141777648Y-91699500D01*
X141753329Y-91703351D01*
X141575465Y-91731522D01*
X141380776Y-91794781D01*
X141198386Y-91887715D01*
X141032786Y-92008028D01*
X140888028Y-92152786D01*
X140767715Y-92318386D01*
X140674781Y-92500776D01*
X140611522Y-92695465D01*
X140579500Y-92897648D01*
X140579500Y-93102351D01*
X140611522Y-93304534D01*
X140674781Y-93499223D01*
X140767715Y-93681613D01*
X140888028Y-93847213D01*
X141032786Y-93991971D01*
X141148581Y-94076099D01*
X141198390Y-94112287D01*
X141314607Y-94171503D01*
X141380776Y-94205218D01*
X141380778Y-94205218D01*
X141380781Y-94205220D01*
X141485137Y-94239127D01*
X141575465Y-94268477D01*
X141676557Y-94284488D01*
X141777648Y-94300500D01*
X141777649Y-94300500D01*
X141982351Y-94300500D01*
X141982352Y-94300500D01*
X142184534Y-94268477D01*
X142379219Y-94205220D01*
X142561610Y-94112287D01*
X142600881Y-94083754D01*
X142666683Y-94060275D01*
X142734738Y-94076099D01*
X142761446Y-94096392D01*
X149007862Y-100342808D01*
X149041347Y-100404131D01*
X149042654Y-100449886D01*
X149014500Y-100627647D01*
X149014500Y-100832351D01*
X149046522Y-101034534D01*
X149109781Y-101229223D01*
X149202715Y-101411613D01*
X149323028Y-101577213D01*
X149467786Y-101721971D01*
X149622749Y-101834556D01*
X149633390Y-101842287D01*
X149724840Y-101888883D01*
X149726080Y-101889515D01*
X149776876Y-101937490D01*
X149793671Y-102005311D01*
X149771134Y-102071446D01*
X149726080Y-102110485D01*
X149633386Y-102157715D01*
X149467786Y-102278028D01*
X149323028Y-102422786D01*
X149202715Y-102588386D01*
X149109781Y-102770776D01*
X149046522Y-102965465D01*
X149014500Y-103167648D01*
X149014500Y-103372351D01*
X149046522Y-103574534D01*
X149109781Y-103769223D01*
X149202715Y-103951613D01*
X149323028Y-104117213D01*
X149467786Y-104261971D01*
X149622749Y-104374556D01*
X149633390Y-104382287D01*
X149706986Y-104419786D01*
X149726080Y-104429515D01*
X149776876Y-104477490D01*
X149793671Y-104545311D01*
X149771134Y-104611446D01*
X149726080Y-104650485D01*
X149633386Y-104697715D01*
X149467786Y-104818028D01*
X149323028Y-104962786D01*
X149202715Y-105128386D01*
X149109781Y-105310776D01*
X149046522Y-105505465D01*
X149014500Y-105707648D01*
X149014500Y-105912351D01*
X149046522Y-106114534D01*
X149109781Y-106309223D01*
X149202715Y-106491613D01*
X149323028Y-106657213D01*
X149467786Y-106801971D01*
X149622749Y-106914556D01*
X149633390Y-106922287D01*
X149749607Y-106981503D01*
X149815776Y-107015218D01*
X149815778Y-107015218D01*
X149815781Y-107015220D01*
X149920137Y-107049127D01*
X150010465Y-107078477D01*
X150111557Y-107094488D01*
X150212648Y-107110500D01*
X150212649Y-107110500D01*
X150417351Y-107110500D01*
X150417352Y-107110500D01*
X150619534Y-107078477D01*
X150814219Y-107015220D01*
X150996610Y-106922287D01*
X151089590Y-106854732D01*
X151162213Y-106801971D01*
X151162215Y-106801968D01*
X151162219Y-106801966D01*
X151306966Y-106657219D01*
X151306968Y-106657215D01*
X151306971Y-106657213D01*
X151359732Y-106584590D01*
X151427287Y-106491610D01*
X151520220Y-106309219D01*
X151583477Y-106114534D01*
X151615500Y-105912352D01*
X151615500Y-105707648D01*
X151583477Y-105505466D01*
X151520220Y-105310781D01*
X151520218Y-105310778D01*
X151520218Y-105310776D01*
X151486503Y-105244607D01*
X151427287Y-105128390D01*
X151419556Y-105117749D01*
X151306971Y-104962786D01*
X151162213Y-104818028D01*
X150996614Y-104697715D01*
X150990006Y-104694348D01*
X150903917Y-104650483D01*
X150853123Y-104602511D01*
X150836328Y-104534690D01*
X150858865Y-104468555D01*
X150903917Y-104429516D01*
X150996610Y-104382287D01*
X151017770Y-104366913D01*
X151162213Y-104261971D01*
X151162215Y-104261968D01*
X151162219Y-104261966D01*
X151306966Y-104117219D01*
X151306968Y-104117215D01*
X151306971Y-104117213D01*
X151359732Y-104044590D01*
X151427287Y-103951610D01*
X151520220Y-103769219D01*
X151583477Y-103574534D01*
X151615500Y-103372352D01*
X151615500Y-103167648D01*
X151583477Y-102965466D01*
X151520220Y-102770781D01*
X151520218Y-102770778D01*
X151520218Y-102770776D01*
X151486503Y-102704607D01*
X151427287Y-102588390D01*
X151376450Y-102518418D01*
X151306971Y-102422786D01*
X151162213Y-102278028D01*
X150996614Y-102157715D01*
X150918859Y-102118097D01*
X150903917Y-102110483D01*
X150853123Y-102062511D01*
X150836328Y-101994690D01*
X150858865Y-101928555D01*
X150903917Y-101889516D01*
X150996610Y-101842287D01*
X151017770Y-101826913D01*
X151162213Y-101721971D01*
X151162215Y-101721968D01*
X151162219Y-101721966D01*
X151306966Y-101577219D01*
X151306968Y-101577215D01*
X151306971Y-101577213D01*
X151368972Y-101491874D01*
X151427287Y-101411610D01*
X151520220Y-101229219D01*
X151583477Y-101034534D01*
X151615500Y-100832352D01*
X151615500Y-100627648D01*
X151601055Y-100536446D01*
X151583477Y-100425465D01*
X151520218Y-100230776D01*
X151455876Y-100104499D01*
X151427287Y-100048390D01*
X151412753Y-100028385D01*
X151306971Y-99882786D01*
X151162213Y-99738028D01*
X150996614Y-99617715D01*
X150947203Y-99592539D01*
X150903917Y-99570483D01*
X150853123Y-99522511D01*
X150836328Y-99454690D01*
X150858865Y-99388555D01*
X150903917Y-99349516D01*
X150996610Y-99302287D01*
X151017770Y-99286913D01*
X151162213Y-99181971D01*
X151162215Y-99181968D01*
X151162219Y-99181966D01*
X151306966Y-99037219D01*
X151306968Y-99037215D01*
X151306971Y-99037213D01*
X151359732Y-98964590D01*
X151427287Y-98871610D01*
X151520220Y-98689219D01*
X151583477Y-98494534D01*
X151615500Y-98292352D01*
X151615500Y-98087648D01*
X151607257Y-98035606D01*
X151583477Y-97885465D01*
X151520218Y-97690776D01*
X151486503Y-97624607D01*
X151427287Y-97508390D01*
X151411966Y-97487302D01*
X151306971Y-97342786D01*
X151162213Y-97198028D01*
X150996613Y-97077715D01*
X150996612Y-97077714D01*
X150996610Y-97077713D01*
X150937675Y-97047684D01*
X150814223Y-96984781D01*
X150619534Y-96921522D01*
X150444995Y-96893878D01*
X150417352Y-96889500D01*
X150212648Y-96889500D01*
X150188329Y-96893351D01*
X150010465Y-96921522D01*
X149815776Y-96984781D01*
X149633386Y-97077715D01*
X149467786Y-97198028D01*
X149323028Y-97342786D01*
X149202715Y-97508386D01*
X149109781Y-97690776D01*
X149046522Y-97885465D01*
X149014500Y-98087648D01*
X149014500Y-98210192D01*
X148994815Y-98277231D01*
X148942011Y-98322986D01*
X148872853Y-98332930D01*
X148809297Y-98303905D01*
X148802819Y-98297873D01*
X143240127Y-92735181D01*
X143206642Y-92673858D01*
X143211626Y-92604166D01*
X143240127Y-92559819D01*
X146613127Y-89186819D01*
X146674450Y-89153334D01*
X146700808Y-89150500D01*
X149421929Y-89150500D01*
X149488968Y-89170185D01*
X149522245Y-89201613D01*
X149628030Y-89347213D01*
X149628034Y-89347219D01*
X149772786Y-89491971D01*
X149927749Y-89604556D01*
X149938390Y-89612287D01*
X150054607Y-89671503D01*
X150120776Y-89705218D01*
X150120778Y-89705218D01*
X150120781Y-89705220D01*
X150225137Y-89739127D01*
X150315465Y-89768477D01*
X150416557Y-89784488D01*
X150517648Y-89800500D01*
X150517649Y-89800500D01*
X150722351Y-89800500D01*
X150722352Y-89800500D01*
X150924534Y-89768477D01*
X151119219Y-89705220D01*
X151301610Y-89612287D01*
X151394590Y-89544732D01*
X151467213Y-89491971D01*
X151467215Y-89491968D01*
X151467219Y-89491966D01*
X151611966Y-89347219D01*
X151611968Y-89347215D01*
X151611971Y-89347213D01*
X151664732Y-89274590D01*
X151732287Y-89181610D01*
X151825220Y-88999219D01*
X151888477Y-88804534D01*
X151920500Y-88602352D01*
X151920500Y-88397648D01*
X151888477Y-88195466D01*
X151825220Y-88000781D01*
X151825218Y-88000778D01*
X151825218Y-88000776D01*
X151760876Y-87874499D01*
X151732287Y-87818390D01*
X151717753Y-87798385D01*
X151611971Y-87652786D01*
X151467213Y-87508028D01*
X151301613Y-87387715D01*
X151301612Y-87387714D01*
X151301610Y-87387713D01*
X151244653Y-87358691D01*
X151119223Y-87294781D01*
X150958106Y-87242431D01*
X150900431Y-87202993D01*
X150873233Y-87138634D01*
X150885148Y-87069788D01*
X150932392Y-87018312D01*
X150996425Y-87000500D01*
X157875500Y-87000500D01*
X157942539Y-87020185D01*
X157988294Y-87072989D01*
X157999500Y-87124500D01*
X157999500Y-91788124D01*
X157979815Y-91855163D01*
X157927011Y-91900918D01*
X157857853Y-91910862D01*
X157806028Y-91889830D01*
X157805766Y-91890259D01*
X157803177Y-91888672D01*
X157802621Y-91888447D01*
X157801612Y-91887714D01*
X157619223Y-91794781D01*
X157424534Y-91731522D01*
X157249995Y-91703878D01*
X157222352Y-91699500D01*
X157017648Y-91699500D01*
X156993329Y-91703351D01*
X156815465Y-91731522D01*
X156620776Y-91794781D01*
X156438386Y-91887715D01*
X156272786Y-92008028D01*
X156128028Y-92152786D01*
X156007715Y-92318386D01*
X155914781Y-92500776D01*
X155851522Y-92695465D01*
X155819500Y-92897648D01*
X155819500Y-93102351D01*
X155851522Y-93304534D01*
X155856173Y-93318848D01*
X155858165Y-93388690D01*
X155825921Y-93444842D01*
X153631286Y-95639478D01*
X153519481Y-95751282D01*
X153519479Y-95751285D01*
X153469361Y-95838094D01*
X153469359Y-95838096D01*
X153440425Y-95888209D01*
X153440424Y-95888210D01*
X153440423Y-95888215D01*
X153399499Y-96040943D01*
X153399499Y-96040945D01*
X153399499Y-96209046D01*
X153399500Y-96209059D01*
X153399500Y-99525500D01*
X153379815Y-99592539D01*
X153327011Y-99638294D01*
X153275501Y-99649500D01*
X153102130Y-99649500D01*
X153102123Y-99649501D01*
X153042516Y-99655908D01*
X152907671Y-99706202D01*
X152907664Y-99706206D01*
X152792455Y-99792452D01*
X152792452Y-99792455D01*
X152706206Y-99907664D01*
X152706202Y-99907671D01*
X152655908Y-100042517D01*
X152649501Y-100102116D01*
X152649501Y-100102123D01*
X152649500Y-100102135D01*
X152649500Y-101897870D01*
X152649501Y-101897876D01*
X152655908Y-101957483D01*
X152706202Y-102092328D01*
X152706206Y-102092335D01*
X152792452Y-102207544D01*
X152792455Y-102207547D01*
X152907664Y-102293793D01*
X152907671Y-102293797D01*
X153039082Y-102342810D01*
X153095016Y-102384681D01*
X153119433Y-102450145D01*
X153104582Y-102518418D01*
X153083431Y-102546673D01*
X152969889Y-102660215D01*
X152844951Y-102832179D01*
X152748444Y-103021585D01*
X152682753Y-103223760D01*
X152649500Y-103433713D01*
X152649500Y-103646286D01*
X152682753Y-103856239D01*
X152748444Y-104058414D01*
X152844951Y-104247820D01*
X152969890Y-104419786D01*
X153120213Y-104570109D01*
X153292179Y-104695048D01*
X153292181Y-104695049D01*
X153292184Y-104695051D01*
X153481588Y-104791557D01*
X153683757Y-104857246D01*
X153893713Y-104890500D01*
X153893714Y-104890500D01*
X154106286Y-104890500D01*
X154106287Y-104890500D01*
X154316243Y-104857246D01*
X154518412Y-104791557D01*
X154707816Y-104695051D01*
X154769156Y-104650485D01*
X154879786Y-104570109D01*
X154879788Y-104570106D01*
X154879792Y-104570104D01*
X155030104Y-104419792D01*
X155030106Y-104419788D01*
X155030109Y-104419786D01*
X155155048Y-104247820D01*
X155155047Y-104247820D01*
X155155051Y-104247816D01*
X155251557Y-104058412D01*
X155317246Y-103856243D01*
X155350500Y-103646287D01*
X155350500Y-103433713D01*
X155317246Y-103223757D01*
X155251557Y-103021588D01*
X155155051Y-102832184D01*
X155155049Y-102832181D01*
X155155048Y-102832179D01*
X155030109Y-102660213D01*
X154916569Y-102546673D01*
X154883084Y-102485350D01*
X154888068Y-102415658D01*
X154929940Y-102359725D01*
X154960915Y-102342810D01*
X155092331Y-102293796D01*
X155207546Y-102207546D01*
X155293796Y-102092331D01*
X155344091Y-101957483D01*
X155350500Y-101897873D01*
X155350499Y-100102128D01*
X155344091Y-100042517D01*
X155293796Y-99907669D01*
X155293795Y-99907668D01*
X155293793Y-99907664D01*
X155207547Y-99792455D01*
X155207544Y-99792452D01*
X155092335Y-99706206D01*
X155092328Y-99706202D01*
X154957482Y-99655908D01*
X154957483Y-99655908D01*
X154897883Y-99649501D01*
X154897881Y-99649500D01*
X154897873Y-99649500D01*
X154897865Y-99649500D01*
X154724500Y-99649500D01*
X154657461Y-99629815D01*
X154611706Y-99577011D01*
X154600500Y-99525500D01*
X154600500Y-96420096D01*
X154620185Y-96353057D01*
X154636814Y-96332420D01*
X156675158Y-94294075D01*
X156736479Y-94260592D01*
X156801151Y-94263825D01*
X156815466Y-94268477D01*
X157017648Y-94300500D01*
X157017649Y-94300500D01*
X157222351Y-94300500D01*
X157222352Y-94300500D01*
X157424534Y-94268477D01*
X157619219Y-94205220D01*
X157801610Y-94112287D01*
X157802608Y-94111562D01*
X157803054Y-94111402D01*
X157805766Y-94109741D01*
X157806114Y-94110310D01*
X157868412Y-94088078D01*
X157936467Y-94103898D01*
X157985166Y-94154001D01*
X157999500Y-94211875D01*
X157999500Y-115375500D01*
X157979815Y-115442539D01*
X157927011Y-115488294D01*
X157875500Y-115499500D01*
X132624500Y-115499500D01*
X132557461Y-115479815D01*
X132511706Y-115427011D01*
X132500500Y-115375500D01*
X132500500Y-109399983D01*
X133546849Y-109399983D01*
X133546849Y-110600001D01*
X133546850Y-110600018D01*
X133557349Y-110702796D01*
X133557350Y-110702799D01*
X133591882Y-110807007D01*
X133612535Y-110869334D01*
X133704637Y-111018656D01*
X133828693Y-111142712D01*
X133978015Y-111234814D01*
X134144552Y-111289999D01*
X134247340Y-111300500D01*
X135447357Y-111300499D01*
X135550146Y-111289999D01*
X135716683Y-111234814D01*
X135866005Y-111142712D01*
X135990061Y-111018656D01*
X136082163Y-110869334D01*
X136137348Y-110702797D01*
X136137348Y-110702795D01*
X136137349Y-110702793D01*
X136138765Y-110696180D01*
X136140071Y-110696459D01*
X136163692Y-110638558D01*
X136213206Y-110601284D01*
X136273127Y-110576465D01*
X136275530Y-110574859D01*
X136276772Y-110574030D01*
X136336569Y-110534075D01*
X136379669Y-110505277D01*
X136838634Y-110046310D01*
X136899957Y-110012826D01*
X136969648Y-110017810D01*
X137025582Y-110059681D01*
X137048788Y-110114594D01*
X137078871Y-110304534D01*
X137142130Y-110499223D01*
X137193489Y-110600018D01*
X137223476Y-110658872D01*
X137235064Y-110681613D01*
X137355377Y-110847213D01*
X137500135Y-110991971D01*
X137601790Y-111065826D01*
X137665739Y-111112287D01*
X137775068Y-111167993D01*
X137848125Y-111205218D01*
X137848127Y-111205218D01*
X137848130Y-111205220D01*
X137939205Y-111234812D01*
X138042814Y-111268477D01*
X138128239Y-111282007D01*
X138244997Y-111300500D01*
X138244998Y-111300500D01*
X138449700Y-111300500D01*
X138449701Y-111300500D01*
X138651883Y-111268477D01*
X138846568Y-111205220D01*
X139028959Y-111112287D01*
X139157831Y-111018657D01*
X139194562Y-110991971D01*
X139194564Y-110991968D01*
X139194568Y-110991966D01*
X139339315Y-110847219D01*
X139445102Y-110701613D01*
X139500431Y-110658949D01*
X139545420Y-110650500D01*
X143275500Y-110650500D01*
X143342539Y-110670185D01*
X143388294Y-110722989D01*
X143399500Y-110774500D01*
X143399500Y-111897870D01*
X143399501Y-111897876D01*
X143405908Y-111957483D01*
X143456202Y-112092328D01*
X143456206Y-112092335D01*
X143542452Y-112207544D01*
X143542455Y-112207547D01*
X143657664Y-112293793D01*
X143657671Y-112293797D01*
X143792517Y-112344091D01*
X143792516Y-112344091D01*
X143799444Y-112344835D01*
X143852127Y-112350500D01*
X145647872Y-112350499D01*
X145707483Y-112344091D01*
X145842331Y-112293796D01*
X145957546Y-112207546D01*
X146043796Y-112092331D01*
X146094091Y-111957483D01*
X146100500Y-111897873D01*
X146100499Y-111873979D01*
X146103330Y-111860963D01*
X146113940Y-111841525D01*
X146120179Y-111820275D01*
X146136803Y-111799643D01*
X146136808Y-111799636D01*
X146136811Y-111799634D01*
X146136818Y-111799626D01*
X146807037Y-111129408D01*
X146824075Y-111192993D01*
X146889901Y-111307007D01*
X146982993Y-111400099D01*
X147097007Y-111465925D01*
X147160590Y-111482962D01*
X146528282Y-112115269D01*
X146528282Y-112115270D01*
X146582449Y-112154624D01*
X146771782Y-112251095D01*
X146973870Y-112316757D01*
X147183754Y-112350000D01*
X147396246Y-112350000D01*
X147606127Y-112316757D01*
X147606130Y-112316757D01*
X147808217Y-112251095D01*
X147997554Y-112154622D01*
X148051716Y-112115270D01*
X148051717Y-112115270D01*
X147419408Y-111482962D01*
X147482993Y-111465925D01*
X147597007Y-111400099D01*
X147690099Y-111307007D01*
X147755925Y-111192993D01*
X147772962Y-111129408D01*
X148405270Y-111761717D01*
X148405270Y-111761716D01*
X148444622Y-111707554D01*
X148541095Y-111518217D01*
X148606757Y-111316130D01*
X148606757Y-111316127D01*
X148640000Y-111106246D01*
X148640000Y-110893753D01*
X148606757Y-110683872D01*
X148606757Y-110683869D01*
X148541095Y-110481782D01*
X148444624Y-110292449D01*
X148405270Y-110238282D01*
X148405269Y-110238282D01*
X147772962Y-110870590D01*
X147755925Y-110807007D01*
X147690099Y-110692993D01*
X147597007Y-110599901D01*
X147482993Y-110534075D01*
X147419409Y-110517037D01*
X147859310Y-110077135D01*
X151399500Y-110077135D01*
X151399500Y-111872870D01*
X151399501Y-111872876D01*
X151405908Y-111932483D01*
X151456202Y-112067328D01*
X151456206Y-112067335D01*
X151542452Y-112182544D01*
X151542455Y-112182547D01*
X151657664Y-112268793D01*
X151657671Y-112268797D01*
X151792517Y-112319091D01*
X151792516Y-112319091D01*
X151799444Y-112319835D01*
X151852127Y-112325500D01*
X153647872Y-112325499D01*
X153707483Y-112319091D01*
X153842331Y-112268796D01*
X153957546Y-112182546D01*
X154043796Y-112067331D01*
X154094091Y-111932483D01*
X154100500Y-111872873D01*
X154100499Y-111848979D01*
X154103330Y-111835963D01*
X154113940Y-111816525D01*
X154120179Y-111795275D01*
X154136803Y-111774643D01*
X154136808Y-111774636D01*
X154136811Y-111774634D01*
X154136818Y-111774626D01*
X154807037Y-111104408D01*
X154824075Y-111167993D01*
X154889901Y-111282007D01*
X154982993Y-111375099D01*
X155097007Y-111440925D01*
X155160590Y-111457962D01*
X154528282Y-112090269D01*
X154528282Y-112090270D01*
X154582449Y-112129624D01*
X154771782Y-112226095D01*
X154973870Y-112291757D01*
X155183754Y-112325000D01*
X155396246Y-112325000D01*
X155606127Y-112291757D01*
X155606130Y-112291757D01*
X155808217Y-112226095D01*
X155997554Y-112129622D01*
X156051716Y-112090270D01*
X156051717Y-112090270D01*
X155419408Y-111457962D01*
X155482993Y-111440925D01*
X155597007Y-111375099D01*
X155690099Y-111282007D01*
X155755925Y-111167993D01*
X155772962Y-111104408D01*
X156405270Y-111736717D01*
X156405270Y-111736716D01*
X156444622Y-111682554D01*
X156541095Y-111493217D01*
X156606757Y-111291130D01*
X156606757Y-111291127D01*
X156640000Y-111081246D01*
X156640000Y-110868753D01*
X156606757Y-110658872D01*
X156606757Y-110658869D01*
X156541095Y-110456782D01*
X156444624Y-110267449D01*
X156405270Y-110213282D01*
X156405269Y-110213282D01*
X155772962Y-110845590D01*
X155755925Y-110782007D01*
X155690099Y-110667993D01*
X155597007Y-110574901D01*
X155482993Y-110509075D01*
X155419409Y-110492037D01*
X156051716Y-109859728D01*
X155997550Y-109820375D01*
X155808217Y-109723904D01*
X155606129Y-109658242D01*
X155396246Y-109625000D01*
X155183754Y-109625000D01*
X154973872Y-109658242D01*
X154973869Y-109658242D01*
X154771782Y-109723904D01*
X154582439Y-109820380D01*
X154528282Y-109859727D01*
X154528282Y-109859728D01*
X155160591Y-110492037D01*
X155097007Y-110509075D01*
X154982993Y-110574901D01*
X154889901Y-110667993D01*
X154824075Y-110782007D01*
X154807037Y-110845591D01*
X154136818Y-110175372D01*
X154103333Y-110114049D01*
X154103330Y-110114036D01*
X154100499Y-110101015D01*
X154100499Y-110077128D01*
X154094091Y-110017517D01*
X154053122Y-109907673D01*
X154043798Y-109882673D01*
X154043793Y-109882664D01*
X153957547Y-109767455D01*
X153957544Y-109767452D01*
X153842335Y-109681206D01*
X153842328Y-109681202D01*
X153707482Y-109630908D01*
X153707483Y-109630908D01*
X153647883Y-109624501D01*
X153647881Y-109624500D01*
X153647873Y-109624500D01*
X153647864Y-109624500D01*
X151852129Y-109624500D01*
X151852123Y-109624501D01*
X151792516Y-109630908D01*
X151657671Y-109681202D01*
X151657664Y-109681206D01*
X151542455Y-109767452D01*
X151542452Y-109767455D01*
X151456206Y-109882664D01*
X151456202Y-109882671D01*
X151405908Y-110017517D01*
X151399501Y-110077116D01*
X151399500Y-110077135D01*
X147859310Y-110077135D01*
X147950320Y-109986125D01*
X148051716Y-109884728D01*
X147997550Y-109845375D01*
X147808217Y-109748904D01*
X147606129Y-109683242D01*
X147396246Y-109650000D01*
X147183754Y-109650000D01*
X146973872Y-109683242D01*
X146973869Y-109683242D01*
X146771782Y-109748904D01*
X146582439Y-109845380D01*
X146528282Y-109884727D01*
X146528282Y-109884728D01*
X147160591Y-110517037D01*
X147097007Y-110534075D01*
X146982993Y-110599901D01*
X146889901Y-110692993D01*
X146824075Y-110807007D01*
X146807037Y-110870591D01*
X146136818Y-110200372D01*
X146103333Y-110139049D01*
X146103330Y-110139036D01*
X146100499Y-110126015D01*
X146100499Y-110102128D01*
X146094091Y-110042517D01*
X146065926Y-109967002D01*
X146043798Y-109907673D01*
X146043793Y-109907664D01*
X145957547Y-109792455D01*
X145957544Y-109792452D01*
X145842335Y-109706206D01*
X145842328Y-109706202D01*
X145707482Y-109655908D01*
X145707483Y-109655908D01*
X145647883Y-109649501D01*
X145647881Y-109649500D01*
X145647873Y-109649500D01*
X145647865Y-109649500D01*
X144370808Y-109649500D01*
X144303769Y-109629815D01*
X144283131Y-109613185D01*
X144164669Y-109494723D01*
X144058127Y-109423535D01*
X143939744Y-109374499D01*
X143939738Y-109374497D01*
X143814071Y-109349500D01*
X143814069Y-109349500D01*
X139545420Y-109349500D01*
X139478381Y-109329815D01*
X139445103Y-109298386D01*
X139339315Y-109152781D01*
X139194568Y-109008034D01*
X139194562Y-109008028D01*
X139028962Y-108887715D01*
X139028961Y-108887714D01*
X139028959Y-108887713D01*
X138969247Y-108857288D01*
X138846572Y-108794781D01*
X138651883Y-108731522D01*
X138491562Y-108706130D01*
X138461941Y-108701438D01*
X138398807Y-108671510D01*
X138361876Y-108612198D01*
X138362874Y-108542336D01*
X138393657Y-108491287D01*
X141182819Y-105702126D01*
X141244142Y-105668641D01*
X141313834Y-105673625D01*
X141369767Y-105715497D01*
X141394184Y-105780961D01*
X141394500Y-105789807D01*
X141394500Y-105912351D01*
X141426522Y-106114534D01*
X141489781Y-106309223D01*
X141582715Y-106491613D01*
X141703028Y-106657213D01*
X141847786Y-106801971D01*
X142002749Y-106914556D01*
X142013390Y-106922287D01*
X142129607Y-106981503D01*
X142195776Y-107015218D01*
X142195778Y-107015218D01*
X142195781Y-107015220D01*
X142300137Y-107049127D01*
X142390465Y-107078477D01*
X142491557Y-107094488D01*
X142592648Y-107110500D01*
X142592649Y-107110500D01*
X142797351Y-107110500D01*
X142797352Y-107110500D01*
X142999534Y-107078477D01*
X143194219Y-107015220D01*
X143376610Y-106922287D01*
X143469590Y-106854732D01*
X143542213Y-106801971D01*
X143542215Y-106801968D01*
X143542219Y-106801966D01*
X143686966Y-106657219D01*
X143686968Y-106657215D01*
X143686971Y-106657213D01*
X143739732Y-106584590D01*
X143807287Y-106491610D01*
X143900220Y-106309219D01*
X143963477Y-106114534D01*
X143995500Y-105912352D01*
X143995500Y-105707648D01*
X143963477Y-105505466D01*
X143900220Y-105310781D01*
X143900218Y-105310778D01*
X143900218Y-105310776D01*
X143866503Y-105244607D01*
X143807287Y-105128390D01*
X143799556Y-105117749D01*
X143686971Y-104962786D01*
X143542213Y-104818028D01*
X143376614Y-104697715D01*
X143370006Y-104694348D01*
X143283917Y-104650483D01*
X143233123Y-104602511D01*
X143216328Y-104534690D01*
X143238865Y-104468555D01*
X143283917Y-104429516D01*
X143376610Y-104382287D01*
X143397770Y-104366913D01*
X143542213Y-104261971D01*
X143542215Y-104261968D01*
X143542219Y-104261966D01*
X143686966Y-104117219D01*
X143686968Y-104117215D01*
X143686971Y-104117213D01*
X143739732Y-104044590D01*
X143807287Y-103951610D01*
X143900220Y-103769219D01*
X143963477Y-103574534D01*
X143995500Y-103372352D01*
X143995500Y-103167648D01*
X143963477Y-102965466D01*
X143900220Y-102770781D01*
X143900218Y-102770778D01*
X143900218Y-102770776D01*
X143866503Y-102704607D01*
X143807287Y-102588390D01*
X143756450Y-102518418D01*
X143686971Y-102422786D01*
X143542213Y-102278028D01*
X143376614Y-102157715D01*
X143298859Y-102118097D01*
X143283917Y-102110483D01*
X143233123Y-102062511D01*
X143216328Y-101994690D01*
X143238865Y-101928555D01*
X143283917Y-101889516D01*
X143376610Y-101842287D01*
X143397770Y-101826913D01*
X143542213Y-101721971D01*
X143542215Y-101721968D01*
X143542219Y-101721966D01*
X143686966Y-101577219D01*
X143686968Y-101577215D01*
X143686971Y-101577213D01*
X143748972Y-101491874D01*
X143807287Y-101411610D01*
X143900220Y-101229219D01*
X143963477Y-101034534D01*
X143995500Y-100832352D01*
X143995500Y-100627648D01*
X143981055Y-100536446D01*
X143963477Y-100425465D01*
X143900218Y-100230776D01*
X143835876Y-100104499D01*
X143807287Y-100048390D01*
X143792753Y-100028385D01*
X143686971Y-99882786D01*
X143542217Y-99738032D01*
X143542212Y-99738028D01*
X143448051Y-99669616D01*
X143405385Y-99614286D01*
X143399406Y-99544673D01*
X143432012Y-99482878D01*
X143481933Y-99451592D01*
X143564117Y-99424359D01*
X143564124Y-99424356D01*
X143713345Y-99332315D01*
X143837315Y-99208345D01*
X143929356Y-99059124D01*
X143929358Y-99059119D01*
X143984505Y-98892697D01*
X143984506Y-98892690D01*
X143994999Y-98789986D01*
X143995000Y-98789973D01*
X143995000Y-98440000D01*
X143010686Y-98440000D01*
X143015080Y-98435606D01*
X143067741Y-98344394D01*
X143095000Y-98242661D01*
X143095000Y-98137339D01*
X143067741Y-98035606D01*
X143015080Y-97944394D01*
X143010686Y-97940000D01*
X143994999Y-97940000D01*
X143994999Y-97590028D01*
X143994998Y-97590013D01*
X143984505Y-97487302D01*
X143929358Y-97320880D01*
X143929356Y-97320875D01*
X143837315Y-97171654D01*
X143713345Y-97047684D01*
X143564124Y-96955643D01*
X143564119Y-96955641D01*
X143397697Y-96900494D01*
X143397690Y-96900493D01*
X143294986Y-96890000D01*
X142945000Y-96890000D01*
X142945000Y-97874314D01*
X142940606Y-97869920D01*
X142849394Y-97817259D01*
X142747661Y-97790000D01*
X142642339Y-97790000D01*
X142540606Y-97817259D01*
X142449394Y-97869920D01*
X142445000Y-97874314D01*
X142445000Y-96890000D01*
X142095028Y-96890000D01*
X142095012Y-96890001D01*
X141992302Y-96900494D01*
X141825880Y-96955641D01*
X141825875Y-96955643D01*
X141676654Y-97047684D01*
X141552684Y-97171654D01*
X141460643Y-97320875D01*
X141460641Y-97320880D01*
X141405494Y-97487302D01*
X141405493Y-97487309D01*
X141395000Y-97590013D01*
X141395000Y-97940000D01*
X142379314Y-97940000D01*
X142374920Y-97944394D01*
X142322259Y-98035606D01*
X142295000Y-98137339D01*
X142295000Y-98242661D01*
X142322259Y-98344394D01*
X142374920Y-98435606D01*
X142379314Y-98440000D01*
X141395001Y-98440000D01*
X141395001Y-98789986D01*
X141405494Y-98892697D01*
X141460641Y-99059119D01*
X141460643Y-99059124D01*
X141552684Y-99208345D01*
X141676654Y-99332315D01*
X141825875Y-99424356D01*
X141825882Y-99424359D01*
X141908067Y-99451592D01*
X141965512Y-99491364D01*
X141992336Y-99555880D01*
X141980021Y-99624656D01*
X141941949Y-99669616D01*
X141847787Y-99738028D01*
X141847782Y-99738032D01*
X141703034Y-99882780D01*
X141646597Y-99960460D01*
X141597246Y-100028386D01*
X141541918Y-100071051D01*
X141496929Y-100079500D01*
X138205929Y-100079500D01*
X138080261Y-100104497D01*
X138080255Y-100104499D01*
X137961875Y-100153533D01*
X137961866Y-100153538D01*
X137855331Y-100224723D01*
X137855327Y-100224726D01*
X137550194Y-100529859D01*
X137488871Y-100563344D01*
X137424196Y-100560109D01*
X137351370Y-100536447D01*
X137351371Y-100536447D01*
X137118097Y-100499500D01*
X137118092Y-100499500D01*
X136881908Y-100499500D01*
X136881903Y-100499500D01*
X136648631Y-100536446D01*
X136424003Y-100609433D01*
X136213566Y-100716657D01*
X136104550Y-100795862D01*
X136022490Y-100855483D01*
X136022488Y-100855485D01*
X136022487Y-100855485D01*
X135855485Y-101022487D01*
X135855485Y-101022488D01*
X135855483Y-101022490D01*
X135795862Y-101104550D01*
X135716657Y-101213566D01*
X135609433Y-101424003D01*
X135536446Y-101648631D01*
X135499500Y-101881902D01*
X135499500Y-102118097D01*
X135536446Y-102351368D01*
X135609433Y-102575996D01*
X135708679Y-102770776D01*
X135716657Y-102786433D01*
X135855483Y-102977510D01*
X136022490Y-103144517D01*
X136213567Y-103283343D01*
X136312991Y-103334002D01*
X136424003Y-103390566D01*
X136424005Y-103390566D01*
X136424008Y-103390568D01*
X136544412Y-103429689D01*
X136648631Y-103463553D01*
X136881903Y-103500500D01*
X136881908Y-103500500D01*
X137118097Y-103500500D01*
X137351368Y-103463553D01*
X137575992Y-103390568D01*
X137786433Y-103283343D01*
X137977510Y-103144517D01*
X138144517Y-102977510D01*
X138283343Y-102786433D01*
X138390568Y-102575992D01*
X138463553Y-102351368D01*
X138472671Y-102293797D01*
X138500500Y-102118097D01*
X138500500Y-101881902D01*
X138480347Y-101754666D01*
X138463553Y-101648632D01*
X138439888Y-101575802D01*
X138439454Y-101560588D01*
X138434136Y-101546328D01*
X138438477Y-101526375D01*
X138437894Y-101505963D01*
X138445983Y-101491874D01*
X138448990Y-101478056D01*
X138470136Y-101449807D01*
X138503129Y-101416816D01*
X138564454Y-101383333D01*
X138590808Y-101380500D01*
X141496929Y-101380500D01*
X141563968Y-101400185D01*
X141597245Y-101431613D01*
X141641028Y-101491874D01*
X141703034Y-101577219D01*
X141847786Y-101721971D01*
X142002749Y-101834556D01*
X142013390Y-101842287D01*
X142104840Y-101888883D01*
X142106080Y-101889515D01*
X142156876Y-101937490D01*
X142173671Y-102005311D01*
X142151134Y-102071446D01*
X142106080Y-102110485D01*
X142013386Y-102157715D01*
X141847786Y-102278028D01*
X141703028Y-102422786D01*
X141582715Y-102588386D01*
X141489781Y-102770776D01*
X141426522Y-102965465D01*
X141394500Y-103167648D01*
X141394500Y-103372351D01*
X141422654Y-103550111D01*
X141413699Y-103619405D01*
X141387862Y-103657190D01*
X136114566Y-108930487D01*
X136053243Y-108963972D01*
X135983551Y-108958988D01*
X135939204Y-108930487D01*
X135866006Y-108857289D01*
X135866005Y-108857288D01*
X135716683Y-108765186D01*
X135550146Y-108710001D01*
X135550144Y-108710000D01*
X135447359Y-108699500D01*
X134247347Y-108699500D01*
X134247330Y-108699501D01*
X134144552Y-108710000D01*
X134144549Y-108710001D01*
X133978017Y-108765185D01*
X133978012Y-108765187D01*
X133828691Y-108857289D01*
X133704638Y-108981342D01*
X133612536Y-109130663D01*
X133612535Y-109130666D01*
X133557350Y-109297203D01*
X133557350Y-109297204D01*
X133557349Y-109297204D01*
X133546849Y-109399983D01*
X132500500Y-109399983D01*
X132500500Y-91881947D01*
X135500000Y-91881947D01*
X135500000Y-92118052D01*
X135536934Y-92351247D01*
X135609897Y-92575802D01*
X135717087Y-92786174D01*
X135777338Y-92869104D01*
X135777340Y-92869105D01*
X136517037Y-92129408D01*
X136534075Y-92192993D01*
X136599901Y-92307007D01*
X136692993Y-92400099D01*
X136807007Y-92465925D01*
X136870590Y-92482962D01*
X136130893Y-93222658D01*
X136213828Y-93282914D01*
X136424197Y-93390102D01*
X136648752Y-93463065D01*
X136648751Y-93463065D01*
X136881948Y-93500000D01*
X137118052Y-93500000D01*
X137351247Y-93463065D01*
X137575802Y-93390102D01*
X137786163Y-93282918D01*
X137786169Y-93282914D01*
X137869104Y-93222658D01*
X137869105Y-93222658D01*
X137129408Y-92482962D01*
X137192993Y-92465925D01*
X137307007Y-92400099D01*
X137400099Y-92307007D01*
X137465925Y-92192993D01*
X137482962Y-92129409D01*
X138222658Y-92869105D01*
X138222658Y-92869104D01*
X138282914Y-92786169D01*
X138282918Y-92786163D01*
X138390102Y-92575802D01*
X138463065Y-92351247D01*
X138500000Y-92118052D01*
X138500000Y-91881947D01*
X138463065Y-91648752D01*
X138390102Y-91424197D01*
X138282914Y-91213828D01*
X138222658Y-91130894D01*
X138222658Y-91130893D01*
X137482962Y-91870590D01*
X137465925Y-91807007D01*
X137400099Y-91692993D01*
X137307007Y-91599901D01*
X137192993Y-91534075D01*
X137129409Y-91517037D01*
X137869105Y-90777340D01*
X137869104Y-90777338D01*
X137786174Y-90717087D01*
X137575802Y-90609897D01*
X137351247Y-90536934D01*
X137351248Y-90536934D01*
X137118052Y-90500000D01*
X136881948Y-90500000D01*
X136648752Y-90536934D01*
X136424197Y-90609897D01*
X136213830Y-90717084D01*
X136130894Y-90777340D01*
X136870591Y-91517037D01*
X136807007Y-91534075D01*
X136692993Y-91599901D01*
X136599901Y-91692993D01*
X136534075Y-91807007D01*
X136517037Y-91870591D01*
X135777340Y-91130894D01*
X135717084Y-91213830D01*
X135609897Y-91424197D01*
X135536934Y-91648752D01*
X135500000Y-91881947D01*
X132500500Y-91881947D01*
X132500500Y-87124500D01*
X132520185Y-87057461D01*
X132572989Y-87011706D01*
X132624500Y-87000500D01*
X135003575Y-87000500D01*
X135070614Y-87020185D01*
G37*
%TD.AperFunction*%
%TD*%
M02*
